<?xml version="1.0" standalone="no"?>
<!DOCTYPE svg PUBLIC "-//W3C//DTD SVG 20010904//EN"
 "http://www.w3.org/TR/2001/REC-SVG-20010904/DTD/svg10.dtd">
<svg version="1.0" xmlns="http://www.w3.org/2000/svg"
 width="260.000000pt" height="260.000000pt" viewBox="0 0 260.000000 260.000000"
 preserveAspectRatio="xMidYMid meet">
<metadata>
Created by potrace 1.11, written by Peter Selinger 2001-2013
</metadata>
<g transform="translate(0.000000,260.000000) scale(0.100000,-0.100000)"
fill="#000000" stroke="none">
<path d="M577 2579 c-272 -66 -460 -251 -555 -544 -15 -44 -17 -130 -17 -730
0 -747 -2 -726 62 -863 102 -220 279 -363 530 -429 15 -4 318 -8 673 -10 606
-3 651 -2 739 17 52 10 99 24 105 30 5 5 17 10 26 10 24 0 169 93 220 142 48
45 112 122 124 148 3 8 16 31 27 50 27 44 64 149 78 220 7 36 9 281 8 710 -3
713 -1 687 -62 825 -89 200 -293 373 -496 421 -19 4 -41 10 -49 13 -8 2 -312
6 -675 7 -620 2 -665 1 -738 -17z"/>
</g>
</svg>
